<svg id="Capa_1" enable-background="new 0 0 507.998 507.998" height="512" viewBox="0 0 507.998 507.998" width="512" xmlns="http://www.w3.org/2000/svg"><g id="XMLID_852_"><path id="XMLID_8_" d="m204.01 24.465-29.792-13.705c-63.782-29.343-127.889 10.977-139.571 85.729-.138.887-33.047 165.702-33.047 165.702-6.967 34.402 9.265 69.333 40.052 86.191l90.347 49.701z" fill="#688c97"/><path id="XMLID_816_" d="m304.015 26.147 29.765-15.387c63.782-29.342 122.901 14.151 139.571 85.73.203.874 33.047 165.701 33.047 165.701 6.967 34.402-9.265 69.333-40.052 86.191l-95.928 49.701z" fill="#4a696f"/><path id="XMLID_712_" d="m152.948 290.307s-25.583 92.917-42.668 122.541c0 0 62.415-7.924 87.864-57.45l14.522-58.411z" fill="#ebe2df"/><path id="XMLID_9_" d="m350.911 289.673s25.94 93.551 43.025 123.175c0 0-76.488-15.998-101.937-65.524l-.558-53.78z" fill="#d2c5c2"/><path id="XMLID_212_" d="m405.993 171.444c0-51.507-29.08-99.828-67.838-127.888-10.428-7.55-23.614-3.166-23.614-3.166s-7.214-12.983-8.116-13.354c-16.135-6.62-36.056-9.037-54.878-9.037-15.549 0-38.345 4.202-54.882 9.027-7.379 2.153-3.71 15.65-3.71 15.65s-17.034-6.856-28.01.87c-39.706 27.949-67.843 75.652-67.843 127.898 0 64.353 39.363 119.505 95.321 142.714l22.473 192.708h73.303l22.473-192.708c55.958-23.209 95.321-78.361 95.321-142.714z" fill="#7ba0b0"/><path id="XMLID_2694_" d="m338.155 43.556c-10.428-7.55-23.614-3.166-23.614-3.166s-7.214-12.983-8.116-13.354c-16.135-6.62-36.056-9.037-54.878-9.037h-.002v488.867h36.654l22.473-192.708c55.958-23.209 95.321-78.361 95.321-142.714 0-51.507-29.08-99.828-67.838-127.888z" fill="#688c97"/><g id="XMLID_200_"><path id="XMLID_954_" d="m313.801 214.349c-25.537 0-46.313-20.776-46.313-46.313h30c0 8.995 7.317 16.313 16.313 16.313s16.313-7.318 16.313-16.313h30c-.001 25.536-20.776 46.313-46.313 46.313z" fill="#4a696f"/></g><g id="XMLID_701_"><path id="XMLID_953_" d="m189.294 214.349c-25.537 0-46.313-20.776-46.313-46.313h30c0 8.995 7.317 16.313 16.313 16.313s16.313-7.318 16.313-16.313h30c0 25.536-20.776 46.313-46.313 46.313z" fill="#688c97"/></g><g id="XMLID_74_"><path id="XMLID_969_" d="m308.555 332.326-3.5 30h-107.01l-3.5-30z" fill="#688c97"/></g><g id="XMLID_10_"><path id="XMLID_959_" d="m299.065 413.716-3.5 30h-88.03l-3.5-30z" fill="#688c97"/></g><g id="XMLID_5_"><path id="XMLID_944_" d="m236.548 76.74h30v42.838h-30z" fill="#91eb90"/></g><g id="XMLID_6_"><path id="XMLID_961_" d="m338.155 43.556-86.61 49.01-86.6-49.02c9.82-6.67 20.45-12.23 31.72-16.52l54.88 31.07 54.88-31.06c11.27 4.28 21.91 9.85 31.73 16.52z" fill="#b9b6ec"/></g><path id="XMLID_1523_" d="m251.545 413.716v30h44.02l3.5-30z" fill="#4a696f"/><path id="XMLID_1522_" d="m251.545 332.326v30h53.51l3.5-30z" fill="#4a696f"/><path id="XMLID_1521_" d="m251.545 76.74h15.003v42.838h-15.003z" fill="#00cc71"/><path id="XMLID_1536_" d="m306.425 27.036-54.88 31.06v34.47l86.61-49.01c-9.82-6.67-20.46-12.24-31.73-16.52z" fill="#948fe1"/></g></svg>